<?xml version="1.0" encoding="UTF-8" standalone="no"?>
<svg width="456" height="456" viewBox="0 0 456 456" version="1.1" xmlns="http://www.w3.org/2000/svg">
    <!-- Same needle-and-thread mark as the app icon; shown on the plum
         splash background (MauiSplashScreen Color in the csproj). -->
    <g transform="translate(10 -6) rotate(-45 228 228)">
        <path d="M184,142 C142,158 133,194 138,228 C142,260 122,278 98,270 C78,263 78,240 96,232"
              fill="none" stroke="#8FA383" stroke-width="15" stroke-linecap="round"/>
        <path fill-rule="evenodd" fill="#F5EEE8"
              d="M112,216 L318,219 L352,228 L318,237 L112,240 A12,12 0 0 1 112,216 Z
                 M153,228 A15,7.5 0 1 0 123,228 A15,7.5 0 1 0 153,228 Z"/>
    </g>
</svg>
